<mxfile host="" modified="2020-06-13T12:42:42.639Z" agent="5.0 (Windows NT 10.0; Win64; x64) AppleWebKit/537.36 (KHTML, like Gecko) Code/1.46.0 Chrome/78.0.3904.130 Electron/7.3.1 Safari/537.36" etag="41WSrk9wQDs05jWXaAaF" version="13.1.3">
    <diagram id="6hGFLwfOUW9BJ-s0fimq" name="Page-1">
        <mxGraphModel dx="794" dy="2145" grid="1" gridSize="10" guides="1" tooltips="1" connect="1" arrows="1" fold="1" page="1" pageScale="1" pageWidth="827" pageHeight="1169" math="0" shadow="0">
            <root>
                <mxCell id="0"/>
                <mxCell id="1" parent="0"/>
                <mxCell id="2" value="" style="rounded=0;whiteSpace=wrap;html=1;" vertex="1" parent="1">
                    <mxGeometry x="150" y="-210" width="1250" height="1700" as="geometry"/>
                </mxCell>
                <mxCell id="3" value="Cave-Serene" style="text;html=1;strokeColor=none;fillColor=none;align=center;verticalAlign=middle;whiteSpace=wrap;rounded=0;" vertex="1" parent="1">
                    <mxGeometry x="170" y="-200" width="90" height="20" as="geometry"/>
                </mxCell>
                <mxCell id="4" value="Logged&lt;br&gt;Administrator" style="shape=umlActor;verticalLabelPosition=bottom;labelBackgroundColor=#ffffff;verticalAlign=top;html=1;outlineConnect=0;" vertex="1" parent="1">
                    <mxGeometry x="30" y="480" width="30" height="60" as="geometry"/>
                </mxCell>
                <mxCell id="6" value="" style="endArrow=classic;html=1;exitX=0.5;exitY=0.5;exitDx=0;exitDy=0;exitPerimeter=0;entryX=0;entryY=0.5;entryDx=0;entryDy=0;" edge="1" parent="1" source="4" target="7">
                    <mxGeometry width="50" height="50" relative="1" as="geometry">
                        <mxPoint x="210" y="560" as="sourcePoint"/>
                        <mxPoint x="190" y="180" as="targetPoint"/>
                    </mxGeometry>
                </mxCell>
                <mxCell id="7" value="Dashboard" style="ellipse;whiteSpace=wrap;html=1;" vertex="1" parent="1">
                    <mxGeometry x="180" y="-120" width="120" height="80" as="geometry"/>
                </mxCell>
                <mxCell id="10" value="Chat" style="ellipse;whiteSpace=wrap;html=1;" vertex="1" parent="1">
                    <mxGeometry x="360" y="-190" width="120" height="80" as="geometry"/>
                </mxCell>
                <mxCell id="11" value="Cose da fare" style="ellipse;whiteSpace=wrap;html=1;" vertex="1" parent="1">
                    <mxGeometry x="795.62" y="-180" width="120" height="80" as="geometry"/>
                </mxCell>
                <mxCell id="12" value="" style="endArrow=classic;html=1;exitX=0.962;exitY=0.335;exitDx=0;exitDy=0;entryX=0;entryY=0.5;entryDx=0;entryDy=0;exitPerimeter=0;" edge="1" parent="1" source="7" target="10">
                    <mxGeometry width="50" height="50" relative="1" as="geometry">
                        <mxPoint x="75" y="210" as="sourcePoint"/>
                        <mxPoint x="220" y="190" as="targetPoint"/>
                    </mxGeometry>
                </mxCell>
                <mxCell id="13" value="" style="endArrow=classic;html=1;exitX=1;exitY=0.5;exitDx=0;exitDy=0;entryX=0;entryY=1;entryDx=0;entryDy=0;" edge="1" parent="1" source="7" target="11">
                    <mxGeometry width="50" height="50" relative="1" as="geometry">
                        <mxPoint x="85" y="220" as="sourcePoint"/>
                        <mxPoint x="230" y="200" as="targetPoint"/>
                        <Array as="points">
                            <mxPoint x="630" y="-70"/>
                        </Array>
                    </mxGeometry>
                </mxCell>
                <mxCell id="14" value="Email veloce" style="ellipse;whiteSpace=wrap;html=1;" vertex="1" parent="1">
                    <mxGeometry x="570" y="-190" width="120" height="80" as="geometry"/>
                </mxCell>
                <mxCell id="15" value="" style="endArrow=classic;html=1;entryX=0;entryY=1;entryDx=0;entryDy=0;exitX=0.991;exitY=0.408;exitDx=0;exitDy=0;exitPerimeter=0;" edge="1" parent="1" source="7" target="14">
                    <mxGeometry width="50" height="50" relative="1" as="geometry">
                        <mxPoint x="330" y="180" as="sourcePoint"/>
                        <mxPoint x="499.9999999999957" y="250" as="targetPoint"/>
                        <Array as="points">
                            <mxPoint x="520" y="-100"/>
                        </Array>
                    </mxGeometry>
                </mxCell>
                <mxCell id="16" value="Pianificazione" style="ellipse;whiteSpace=wrap;html=1;" vertex="1" parent="1">
                    <mxGeometry x="260" y="150" width="120" height="80" as="geometry"/>
                </mxCell>
                <mxCell id="17" value="Autorizzazione" style="ellipse;whiteSpace=wrap;html=1;" vertex="1" parent="1">
                    <mxGeometry x="200" y="360" width="120" height="80" as="geometry"/>
                </mxCell>
                <mxCell id="18" value="Rendicontazione" style="ellipse;whiteSpace=wrap;html=1;" vertex="1" parent="1">
                    <mxGeometry x="190" y="560" width="120" height="80" as="geometry"/>
                </mxCell>
                <mxCell id="19" value="Controlli" style="ellipse;whiteSpace=wrap;html=1;" vertex="1" parent="1">
                    <mxGeometry x="210" y="960" width="120" height="80" as="geometry"/>
                </mxCell>
                <mxCell id="20" value="Amministrazione" style="ellipse;whiteSpace=wrap;html=1;" vertex="1" parent="1">
                    <mxGeometry x="200" y="1150" width="120" height="80" as="geometry"/>
                </mxCell>
                <mxCell id="22" value="Settings" style="ellipse;whiteSpace=wrap;html=1;" vertex="1" parent="1">
                    <mxGeometry x="290" y="-10" width="120" height="80" as="geometry"/>
                </mxCell>
                <mxCell id="23" value="Scegli Theme" style="ellipse;whiteSpace=wrap;html=1;" vertex="1" parent="1">
                    <mxGeometry x="650" y="-50" width="120" height="80" as="geometry"/>
                </mxCell>
                <mxCell id="24" value="Scegli lingua" style="ellipse;whiteSpace=wrap;html=1;" vertex="1" parent="1">
                    <mxGeometry x="460" y="-50" width="120" height="80" as="geometry"/>
                </mxCell>
                <mxCell id="27" value="" style="endArrow=classic;html=1;exitX=1;exitY=0.5;exitDx=0;exitDy=0;entryX=0;entryY=0.5;entryDx=0;entryDy=0;" edge="1" parent="1" source="22" target="24">
                    <mxGeometry width="50" height="50" relative="1" as="geometry">
                        <mxPoint x="340.00000000000205" y="190" as="sourcePoint"/>
                        <mxPoint x="499.9999999999957" y="250" as="targetPoint"/>
                    </mxGeometry>
                </mxCell>
                <mxCell id="28" value="" style="endArrow=classic;html=1;exitX=0.973;exitY=0.712;exitDx=0;exitDy=0;entryX=0.056;entryY=0.704;entryDx=0;entryDy=0;entryPerimeter=0;exitPerimeter=0;" edge="1" parent="1" source="22" target="23">
                    <mxGeometry width="50" height="50" relative="1" as="geometry">
                        <mxPoint x="350.00000000000205" y="200" as="sourcePoint"/>
                        <mxPoint x="509.9999999999957" y="260" as="targetPoint"/>
                        <Array as="points">
                            <mxPoint x="530" y="60"/>
                        </Array>
                    </mxGeometry>
                </mxCell>
                <mxCell id="29" value="Gestione PIAE" style="ellipse;whiteSpace=wrap;html=1;" vertex="1" parent="1">
                    <mxGeometry x="620" y="180" width="120" height="80" as="geometry"/>
                </mxCell>
                <mxCell id="30" value="Gestione&lt;br&gt;Materiali" style="ellipse;whiteSpace=wrap;html=1;" vertex="1" parent="1">
                    <mxGeometry x="1210" y="-10" width="120" height="80" as="geometry"/>
                </mxCell>
                <mxCell id="31" value="Gestione&lt;br&gt;Tipi materiali" style="ellipse;whiteSpace=wrap;html=1;" vertex="1" parent="1">
                    <mxGeometry x="1190" y="100" width="120" height="80" as="geometry"/>
                </mxCell>
                <mxCell id="32" value="Gestione&lt;br&gt;Aree estrattive" style="ellipse;whiteSpace=wrap;html=1;" vertex="1" parent="1">
                    <mxGeometry x="620" y="70" width="120" height="80" as="geometry"/>
                </mxCell>
                <mxCell id="33" value="Gestione Enti" style="ellipse;whiteSpace=wrap;html=1;" vertex="1" parent="1">
                    <mxGeometry x="460" y="90" width="120" height="80" as="geometry"/>
                </mxCell>
                <mxCell id="34" value="" style="endArrow=classic;html=1;exitX=0.883;exitY=0.836;exitDx=0;exitDy=0;exitPerimeter=0;" edge="1" parent="1" source="16" target="30">
                    <mxGeometry width="50" height="50" relative="1" as="geometry">
                        <mxPoint x="320" y="380" as="sourcePoint"/>
                        <mxPoint x="369.99999999999795" y="250" as="targetPoint"/>
                        <Array as="points">
                            <mxPoint x="670" y="280"/>
                            <mxPoint x="850" y="250"/>
                        </Array>
                    </mxGeometry>
                </mxCell>
                <mxCell id="35" value="" style="endArrow=classic;html=1;entryX=0;entryY=0.5;entryDx=0;entryDy=0;exitX=0.928;exitY=0.763;exitDx=0;exitDy=0;exitPerimeter=0;" edge="1" parent="1" source="16" target="29">
                    <mxGeometry width="50" height="50" relative="1" as="geometry">
                        <mxPoint x="324" y="380" as="sourcePoint"/>
                        <mxPoint x="379.99999999999795" y="260" as="targetPoint"/>
                        <Array as="points"/>
                    </mxGeometry>
                </mxCell>
                <mxCell id="36" value="" style="endArrow=classic;html=1;exitX=0.982;exitY=0.624;exitDx=0;exitDy=0;entryX=0.036;entryY=0.749;entryDx=0;entryDy=0;exitPerimeter=0;entryPerimeter=0;" edge="1" parent="1" source="16" target="32">
                    <mxGeometry width="50" height="50" relative="1" as="geometry">
                        <mxPoint x="330.00000000000205" y="300" as="sourcePoint"/>
                        <mxPoint x="389.99999999999795" y="270" as="targetPoint"/>
                        <Array as="points">
                            <mxPoint x="560" y="190"/>
                        </Array>
                    </mxGeometry>
                </mxCell>
                <mxCell id="37" value="" style="endArrow=classic;html=1;exitX=1;exitY=0;exitDx=0;exitDy=0;" edge="1" parent="1" source="16" target="33">
                    <mxGeometry width="50" height="50" relative="1" as="geometry">
                        <mxPoint x="340.00000000000205" y="310" as="sourcePoint"/>
                        <mxPoint x="399.99999999999795" y="280" as="targetPoint"/>
                    </mxGeometry>
                </mxCell>
                <mxCell id="38" value="" style="endArrow=classic;html=1;exitX=0.791;exitY=0.902;exitDx=0;exitDy=0;entryX=0;entryY=0.5;entryDx=0;entryDy=0;exitPerimeter=0;" edge="1" parent="1" source="16" target="31">
                    <mxGeometry width="50" height="50" relative="1" as="geometry">
                        <mxPoint x="350.00000000000205" y="320" as="sourcePoint"/>
                        <mxPoint x="409.99999999999795" y="290" as="targetPoint"/>
                        <Array as="points">
                            <mxPoint x="670" y="310"/>
                            <mxPoint x="860" y="270"/>
                        </Array>
                    </mxGeometry>
                </mxCell>
                <mxCell id="39" value="" style="endArrow=classic;html=1;exitX=0.5;exitY=0.5;exitDx=0;exitDy=0;exitPerimeter=0;entryX=0;entryY=0.5;entryDx=0;entryDy=0;" edge="1" parent="1" source="4" target="22">
                    <mxGeometry width="50" height="50" relative="1" as="geometry">
                        <mxPoint x="75" y="210" as="sourcePoint"/>
                        <mxPoint x="219.99999999999795" y="190" as="targetPoint"/>
                    </mxGeometry>
                </mxCell>
                <mxCell id="40" value="" style="endArrow=classic;html=1;exitX=0.5;exitY=0.5;exitDx=0;exitDy=0;exitPerimeter=0;entryX=0;entryY=0.5;entryDx=0;entryDy=0;" edge="1" parent="1" source="4" target="16">
                    <mxGeometry width="50" height="50" relative="1" as="geometry">
                        <mxPoint x="85" y="220" as="sourcePoint"/>
                        <mxPoint x="229.99999999999795" y="200" as="targetPoint"/>
                    </mxGeometry>
                </mxCell>
                <mxCell id="41" value="Gestione Area" style="ellipse;whiteSpace=wrap;html=1;" vertex="1" parent="1">
                    <mxGeometry x="1040" width="120" height="80" as="geometry"/>
                </mxCell>
                <mxCell id="42" value="Gestione Fabbisogni" style="ellipse;whiteSpace=wrap;html=1;" vertex="1" parent="1">
                    <mxGeometry x="1050" y="-140" width="120" height="80" as="geometry"/>
                </mxCell>
                <mxCell id="43" value="Gestione Atti" style="ellipse;whiteSpace=wrap;html=1;" vertex="1" parent="1">
                    <mxGeometry x="830" y="-50" width="120" height="80" as="geometry"/>
                </mxCell>
                <mxCell id="44" value="Potenzialità Area" style="ellipse;whiteSpace=wrap;html=1;" vertex="1" parent="1">
                    <mxGeometry x="1230" y="-150" width="120" height="80" as="geometry"/>
                </mxCell>
                <mxCell id="45" value="" style="endArrow=classic;html=1;exitX=0.992;exitY=0.359;exitDx=0;exitDy=0;entryX=0.5;entryY=1;entryDx=0;entryDy=0;exitPerimeter=0;" edge="1" parent="1" source="29" target="43">
                    <mxGeometry width="50" height="50" relative="1" as="geometry">
                        <mxPoint x="710.000000000002" y="310" as="sourcePoint"/>
                        <mxPoint x="759.9999999999957" y="270" as="targetPoint"/>
                    </mxGeometry>
                </mxCell>
                <mxCell id="46" value="" style="endArrow=classic;html=1;exitX=1.002;exitY=0.418;exitDx=0;exitDy=0;entryX=0;entryY=1;entryDx=0;entryDy=0;exitPerimeter=0;" edge="1" parent="1" source="29" target="42">
                    <mxGeometry width="50" height="50" relative="1" as="geometry">
                        <mxPoint x="720.000000000002" y="320" as="sourcePoint"/>
                        <mxPoint x="769.9999999999957" y="280" as="targetPoint"/>
                    </mxGeometry>
                </mxCell>
                <mxCell id="47" value="" style="endArrow=classic;html=1;exitX=1;exitY=0.5;exitDx=0;exitDy=0;entryX=0;entryY=0.5;entryDx=0;entryDy=0;" edge="1" parent="1" source="41" target="44">
                    <mxGeometry width="50" height="50" relative="1" as="geometry">
                        <mxPoint x="730.000000000002" y="330" as="sourcePoint"/>
                        <mxPoint x="779.9999999999957" y="290" as="targetPoint"/>
                    </mxGeometry>
                </mxCell>
                <mxCell id="48" value="" style="endArrow=classic;html=1;exitX=1;exitY=0.5;exitDx=0;exitDy=0;" edge="1" parent="1" source="29" target="41">
                    <mxGeometry width="50" height="50" relative="1" as="geometry">
                        <mxPoint x="740.000000000002" y="340" as="sourcePoint"/>
                        <mxPoint x="789.9999999999957" y="300" as="targetPoint"/>
                    </mxGeometry>
                </mxCell>
                <mxCell id="49" value="Gestione&lt;br&gt;Soggetti" style="ellipse;whiteSpace=wrap;html=1;" vertex="1" parent="1">
                    <mxGeometry x="370" y="300" width="120" height="80" as="geometry"/>
                </mxCell>
                <mxCell id="50" value="Autorizzazioni" style="ellipse;whiteSpace=wrap;html=1;" vertex="1" parent="1">
                    <mxGeometry x="860" y="505" width="120" height="80" as="geometry"/>
                </mxCell>
                <mxCell id="51" value="Concessioni" style="ellipse;whiteSpace=wrap;html=1;" vertex="1" parent="1">
                    <mxGeometry x="340" y="470" width="120" height="80" as="geometry"/>
                </mxCell>
                <mxCell id="52" value="Gestione&lt;br&gt;Esercienti" style="ellipse;whiteSpace=wrap;html=1;" vertex="1" parent="1">
                    <mxGeometry x="770" y="300" width="120" height="80" as="geometry"/>
                </mxCell>
                <mxCell id="53" value="Gestione&lt;br&gt;Cave" style="ellipse;whiteSpace=wrap;html=1;" vertex="1" parent="1">
                    <mxGeometry x="960" y="310" width="120" height="80" as="geometry"/>
                </mxCell>
                <mxCell id="54" value="Gestione&lt;br&gt;Miniere" style="ellipse;whiteSpace=wrap;html=1;" vertex="1" parent="1">
                    <mxGeometry x="710" y="400" width="120" height="80" as="geometry"/>
                </mxCell>
                <mxCell id="55" value="Gestione&lt;br&gt;Impianti" style="ellipse;whiteSpace=wrap;html=1;" vertex="1" parent="1">
                    <mxGeometry x="1150" y="300" width="120" height="80" as="geometry"/>
                </mxCell>
                <mxCell id="58" value="GIS" style="ellipse;whiteSpace=wrap;html=1;" vertex="1" parent="1">
                    <mxGeometry x="1070" y="200" width="120" height="80" as="geometry"/>
                </mxCell>
                <mxCell id="59" value="" style="endArrow=classic;html=1;exitX=1;exitY=0.5;exitDx=0;exitDy=0;entryX=0;entryY=0.5;entryDx=0;entryDy=0;" edge="1" parent="1" source="17" target="49">
                    <mxGeometry width="50" height="50" relative="1" as="geometry">
                        <mxPoint x="620" y="850" as="sourcePoint"/>
                        <mxPoint x="670" y="800" as="targetPoint"/>
                    </mxGeometry>
                </mxCell>
                <mxCell id="60" value="" style="endArrow=classic;html=1;exitX=1;exitY=0.5;exitDx=0;exitDy=0;entryX=0;entryY=0.5;entryDx=0;entryDy=0;" edge="1" parent="1" source="49" target="52">
                    <mxGeometry width="50" height="50" relative="1" as="geometry">
                        <mxPoint x="630" y="860" as="sourcePoint"/>
                        <mxPoint x="680" y="810" as="targetPoint"/>
                    </mxGeometry>
                </mxCell>
                <mxCell id="61" value="" style="endArrow=classic;html=1;entryX=0.007;entryY=0.344;entryDx=0;entryDy=0;entryPerimeter=0;exitX=1;exitY=0.625;exitDx=0;exitDy=0;exitPerimeter=0;" edge="1" parent="1" source="17" target="50">
                    <mxGeometry width="50" height="50" relative="1" as="geometry">
                        <mxPoint x="310" y="600" as="sourcePoint"/>
                        <mxPoint x="690" y="820" as="targetPoint"/>
                    </mxGeometry>
                </mxCell>
                <mxCell id="62" value="" style="endArrow=classic;html=1;exitX=0.992;exitY=0.624;exitDx=0;exitDy=0;exitPerimeter=0;entryX=0;entryY=0;entryDx=0;entryDy=0;" edge="1" parent="1" source="17" target="51">
                    <mxGeometry width="50" height="50" relative="1" as="geometry">
                        <mxPoint x="650" y="880" as="sourcePoint"/>
                        <mxPoint x="700" y="830" as="targetPoint"/>
                    </mxGeometry>
                </mxCell>
                <mxCell id="63" value="" style="endArrow=classic;html=1;exitX=1;exitY=0;exitDx=0;exitDy=0;" edge="1" parent="1" source="53" target="58">
                    <mxGeometry width="50" height="50" relative="1" as="geometry">
                        <mxPoint x="660" y="890" as="sourcePoint"/>
                        <mxPoint x="710" y="840" as="targetPoint"/>
                    </mxGeometry>
                </mxCell>
                <mxCell id="64" value="" style="endArrow=classic;html=1;exitX=0.992;exitY=0.62;exitDx=0;exitDy=0;exitPerimeter=0;entryX=0;entryY=0.5;entryDx=0;entryDy=0;" edge="1" parent="1" source="49" target="53">
                    <mxGeometry width="50" height="50" relative="1" as="geometry">
                        <mxPoint x="670" y="900" as="sourcePoint"/>
                        <mxPoint x="720" y="850" as="targetPoint"/>
                        <Array as="points">
                            <mxPoint x="840" y="400"/>
                        </Array>
                    </mxGeometry>
                </mxCell>
                <mxCell id="65" value="" style="endArrow=classic;html=1;exitX=0.963;exitY=0.708;exitDx=0;exitDy=0;exitPerimeter=0;" edge="1" parent="1" source="49" target="54">
                    <mxGeometry width="50" height="50" relative="1" as="geometry">
                        <mxPoint x="680" y="910" as="sourcePoint"/>
                        <mxPoint x="730" y="860" as="targetPoint"/>
                    </mxGeometry>
                </mxCell>
                <mxCell id="66" value="" style="endArrow=classic;html=1;exitX=0.943;exitY=0.811;exitDx=0;exitDy=0;exitPerimeter=0;" edge="1" parent="1" source="49" target="55">
                    <mxGeometry width="50" height="50" relative="1" as="geometry">
                        <mxPoint x="690" y="920" as="sourcePoint"/>
                        <mxPoint x="740" y="870" as="targetPoint"/>
                        <Array as="points">
                            <mxPoint x="670" y="470"/>
                            <mxPoint x="780" y="493"/>
                            <mxPoint x="880" y="493"/>
                        </Array>
                    </mxGeometry>
                </mxCell>
                <mxCell id="67" value="" style="endArrow=classic;html=1;entryX=0;entryY=0;entryDx=0;entryDy=0;" edge="1" parent="1" source="50" target="73">
                    <mxGeometry width="50" height="50" relative="1" as="geometry">
                        <mxPoint x="700" y="930" as="sourcePoint"/>
                        <mxPoint x="750" y="880" as="targetPoint"/>
                    </mxGeometry>
                </mxCell>
                <mxCell id="68" value="Iter" style="ellipse;whiteSpace=wrap;html=1;" vertex="1" parent="1">
                    <mxGeometry x="1110" y="405" width="120" height="80" as="geometry"/>
                </mxCell>
                <mxCell id="69" value="Sospensioni" style="ellipse;whiteSpace=wrap;html=1;" vertex="1" parent="1">
                    <mxGeometry x="1260" y="400" width="120" height="80" as="geometry"/>
                </mxCell>
                <mxCell id="70" value="VIA" style="ellipse;whiteSpace=wrap;html=1;" vertex="1" parent="1">
                    <mxGeometry x="1260" y="490" width="120" height="80" as="geometry"/>
                </mxCell>
                <mxCell id="71" value="Materiali" style="ellipse;whiteSpace=wrap;html=1;" vertex="1" parent="1">
                    <mxGeometry x="1150" y="560" width="120" height="80" as="geometry"/>
                </mxCell>
                <mxCell id="72" value="Deroghe/Proroghe" style="ellipse;whiteSpace=wrap;html=1;" vertex="1" parent="1">
                    <mxGeometry x="1260" y="640" width="120" height="80" as="geometry"/>
                </mxCell>
                <mxCell id="73" value="Sistemazione" style="ellipse;whiteSpace=wrap;html=1;" vertex="1" parent="1">
                    <mxGeometry x="1060" y="670" width="120" height="80" as="geometry"/>
                </mxCell>
                <mxCell id="76" value="" style="endArrow=classic;html=1;entryX=0;entryY=0.5;entryDx=0;entryDy=0;" edge="1" parent="1" source="50" target="72">
                    <mxGeometry width="50" height="50" relative="1" as="geometry">
                        <mxPoint x="710" y="940" as="sourcePoint"/>
                        <mxPoint x="760" y="890" as="targetPoint"/>
                    </mxGeometry>
                </mxCell>
                <mxCell id="77" value="" style="endArrow=classic;html=1;entryX=0;entryY=0.5;entryDx=0;entryDy=0;" edge="1" parent="1" source="50" target="71">
                    <mxGeometry width="50" height="50" relative="1" as="geometry">
                        <mxPoint x="720" y="950" as="sourcePoint"/>
                        <mxPoint x="770" y="900" as="targetPoint"/>
                    </mxGeometry>
                </mxCell>
                <mxCell id="78" value="" style="endArrow=classic;html=1;entryX=0;entryY=0.5;entryDx=0;entryDy=0;exitX=1;exitY=0.5;exitDx=0;exitDy=0;" edge="1" parent="1" source="50" target="70">
                    <mxGeometry width="50" height="50" relative="1" as="geometry">
                        <mxPoint x="730" y="960" as="sourcePoint"/>
                        <mxPoint x="780" y="910" as="targetPoint"/>
                    </mxGeometry>
                </mxCell>
                <mxCell id="79" value="" style="endArrow=classic;html=1;entryX=0.041;entryY=0.675;entryDx=0;entryDy=0;exitX=0.987;exitY=0.344;exitDx=0;exitDy=0;exitPerimeter=0;entryPerimeter=0;" edge="1" parent="1" source="50" target="69">
                    <mxGeometry width="50" height="50" relative="1" as="geometry">
                        <mxPoint x="740" y="970" as="sourcePoint"/>
                        <mxPoint x="790" y="920" as="targetPoint"/>
                        <Array as="points">
                            <mxPoint x="1190" y="510"/>
                        </Array>
                    </mxGeometry>
                </mxCell>
                <mxCell id="80" value="" style="endArrow=classic;html=1;entryX=0;entryY=0.5;entryDx=0;entryDy=0;exitX=0.938;exitY=0.256;exitDx=0;exitDy=0;exitPerimeter=0;" edge="1" parent="1" source="50" target="68">
                    <mxGeometry width="50" height="50" relative="1" as="geometry">
                        <mxPoint x="750" y="980" as="sourcePoint"/>
                        <mxPoint x="800" y="930" as="targetPoint"/>
                    </mxGeometry>
                </mxCell>
                <mxCell id="81" value="Iter" style="ellipse;whiteSpace=wrap;html=1;" vertex="1" parent="1">
                    <mxGeometry x="510" y="490" width="120" height="80" as="geometry"/>
                </mxCell>
                <mxCell id="82" value="" style="endArrow=classic;html=1;entryX=0;entryY=0.5;entryDx=0;entryDy=0;exitX=1;exitY=0.5;exitDx=0;exitDy=0;" edge="1" parent="1" target="81" source="51">
                    <mxGeometry width="50" height="50" relative="1" as="geometry">
                        <mxPoint x="480" y="770" as="sourcePoint"/>
                        <mxPoint x="219" y="1075" as="targetPoint"/>
                    </mxGeometry>
                </mxCell>
                <mxCell id="86" value="Materiali" style="ellipse;whiteSpace=wrap;html=1;" vertex="1" parent="1">
                    <mxGeometry x="650" y="520" width="120" height="80" as="geometry"/>
                </mxCell>
                <mxCell id="87" value="" style="endArrow=classic;html=1;entryX=0;entryY=0.5;entryDx=0;entryDy=0;exitX=0.983;exitY=0.734;exitDx=0;exitDy=0;exitPerimeter=0;" edge="1" parent="1" target="86" source="51">
                    <mxGeometry width="50" height="50" relative="1" as="geometry">
                        <mxPoint x="309.9999999999999" y="672.28" as="sourcePoint"/>
                        <mxPoint x="324.62" y="937.72" as="targetPoint"/>
                        <Array as="points">
                            <mxPoint x="570" y="590"/>
                        </Array>
                    </mxGeometry>
                </mxCell>
                <mxCell id="88" value="Proroghe" style="ellipse;whiteSpace=wrap;html=1;" vertex="1" parent="1">
                    <mxGeometry x="770" y="570" width="120" height="80" as="geometry"/>
                </mxCell>
                <mxCell id="89" value="" style="endArrow=classic;html=1;entryX=0;entryY=0.5;entryDx=0;entryDy=0;exitX=1;exitY=1;exitDx=0;exitDy=0;" edge="1" parent="1" target="88" source="51">
                    <mxGeometry width="50" height="50" relative="1" as="geometry">
                        <mxPoint x="449.9999999999998" y="700" as="sourcePoint"/>
                        <mxPoint x="316.9" y="906" as="targetPoint"/>
                        <Array as="points">
                            <mxPoint x="570" y="610"/>
                        </Array>
                    </mxGeometry>
                </mxCell>
                <mxCell id="90" value="Sistemazione" style="ellipse;whiteSpace=wrap;html=1;" vertex="1" parent="1">
                    <mxGeometry x="630" y="630" width="120" height="80" as="geometry"/>
                </mxCell>
                <mxCell id="91" value="" style="endArrow=classic;html=1;entryX=0;entryY=0.5;entryDx=0;entryDy=0;exitX=0.728;exitY=0.954;exitDx=0;exitDy=0;exitPerimeter=0;" edge="1" parent="1" target="90" source="51">
                    <mxGeometry width="50" height="50" relative="1" as="geometry">
                        <mxPoint x="589.0264068711928" y="766.1442712474619" as="sourcePoint"/>
                        <mxPoint x="450" y="953.86" as="targetPoint"/>
                        <Array as="points">
                            <mxPoint x="550" y="620"/>
                        </Array>
                    </mxGeometry>
                </mxCell>
                <mxCell id="92" value="" style="endArrow=classic;html=1;exitX=0.5;exitY=0.5;exitDx=0;exitDy=0;exitPerimeter=0;entryX=0.051;entryY=0.3;entryDx=0;entryDy=0;entryPerimeter=0;" edge="1" parent="1" source="4" target="17">
                    <mxGeometry width="50" height="50" relative="1" as="geometry">
                        <mxPoint x="75" y="210" as="sourcePoint"/>
                        <mxPoint x="209.99999999999773" y="400" as="targetPoint"/>
                    </mxGeometry>
                </mxCell>
                <mxCell id="94" value="" style="endArrow=classic;html=1;exitX=0.5;exitY=0.5;exitDx=0;exitDy=0;exitPerimeter=0;entryX=0;entryY=0;entryDx=0;entryDy=0;" edge="1" parent="1" source="4" target="18">
                    <mxGeometry width="50" height="50" relative="1" as="geometry">
                        <mxPoint x="55" y="520" as="sourcePoint"/>
                        <mxPoint x="206.12" y="594" as="targetPoint"/>
                    </mxGeometry>
                </mxCell>
                <mxCell id="95" value="Cave" style="ellipse;whiteSpace=wrap;html=1;" vertex="1" parent="1">
                    <mxGeometry x="360" y="585" width="120" height="80" as="geometry"/>
                </mxCell>
                <mxCell id="96" value="" style="endArrow=classic;html=1;exitX=0.957;exitY=0.761;exitDx=0;exitDy=0;entryX=0.055;entryY=0.307;entryDx=0;entryDy=0;entryPerimeter=0;exitPerimeter=0;" edge="1" parent="1" source="18" target="95">
                    <mxGeometry width="50" height="50" relative="1" as="geometry">
                        <mxPoint x="55" y="520" as="sourcePoint"/>
                        <mxPoint x="197.57359312880726" y="721.7157287525381" as="targetPoint"/>
                    </mxGeometry>
                </mxCell>
                <mxCell id="97" value="Materiali Estratti" style="ellipse;whiteSpace=wrap;html=1;" vertex="1" parent="1">
                    <mxGeometry x="870" y="700" width="120" height="80" as="geometry"/>
                </mxCell>
                <mxCell id="98" value="Materiali Inutilizzati" style="ellipse;whiteSpace=wrap;html=1;" vertex="1" parent="1">
                    <mxGeometry x="1140" y="770" width="120" height="80" as="geometry"/>
                </mxCell>
                <mxCell id="99" value="Mezzi Produttivi" style="ellipse;whiteSpace=wrap;html=1;" vertex="1" parent="1">
                    <mxGeometry x="1110" y="870" width="120" height="80" as="geometry"/>
                </mxCell>
                <mxCell id="100" value="Energia" style="ellipse;whiteSpace=wrap;html=1;" vertex="1" parent="1">
                    <mxGeometry x="1230" y="830" width="120" height="80" as="geometry"/>
                </mxCell>
                <mxCell id="101" value="" style="endArrow=classic;html=1;entryX=0;entryY=0.5;entryDx=0;entryDy=0;" edge="1" parent="1" source="95" target="97">
                    <mxGeometry width="50" height="50" relative="1" as="geometry">
                        <mxPoint x="320.00000000000114" y="610" as="sourcePoint"/>
                        <mxPoint x="366.5999999999999" y="654.5600000000004" as="targetPoint"/>
                        <Array as="points">
                            <mxPoint x="690" y="760"/>
                        </Array>
                    </mxGeometry>
                </mxCell>
                <mxCell id="102" value="" style="endArrow=classic;html=1;exitX=1;exitY=1;exitDx=0;exitDy=0;" edge="1" parent="1" source="95" target="98">
                    <mxGeometry width="50" height="50" relative="1" as="geometry">
                        <mxPoint x="330.00000000000114" y="620" as="sourcePoint"/>
                        <mxPoint x="376.5999999999999" y="664.5600000000004" as="targetPoint"/>
                        <Array as="points">
                            <mxPoint x="680" y="770"/>
                        </Array>
                    </mxGeometry>
                </mxCell>
                <mxCell id="103" value="" style="endArrow=classic;html=1;exitX=0.78;exitY=0.908;exitDx=0;exitDy=0;entryX=-0.014;entryY=0.415;entryDx=0;entryDy=0;entryPerimeter=0;exitPerimeter=0;" edge="1" parent="1" source="95" target="100">
                    <mxGeometry width="50" height="50" relative="1" as="geometry">
                        <mxPoint x="340.00000000000114" y="630" as="sourcePoint"/>
                        <mxPoint x="386.5999999999999" y="674.5600000000004" as="targetPoint"/>
                        <Array as="points">
                            <mxPoint x="680" y="780"/>
                        </Array>
                    </mxGeometry>
                </mxCell>
                <mxCell id="104" value="" style="endArrow=classic;html=1;exitX=0.663;exitY=0.996;exitDx=0;exitDy=0;exitPerimeter=0;" edge="1" parent="1" source="95" target="99">
                    <mxGeometry width="50" height="50" relative="1" as="geometry">
                        <mxPoint x="350.00000000000114" y="640" as="sourcePoint"/>
                        <mxPoint x="396.5999999999999" y="684.5600000000004" as="targetPoint"/>
                        <Array as="points">
                            <mxPoint x="660" y="790"/>
                        </Array>
                    </mxGeometry>
                </mxCell>
                <mxCell id="105" value="Miniere" style="ellipse;whiteSpace=wrap;html=1;" vertex="1" parent="1">
                    <mxGeometry x="370" y="690" width="120" height="80" as="geometry"/>
                </mxCell>
                <mxCell id="106" value="Dati Impianti" style="ellipse;whiteSpace=wrap;html=1;" vertex="1" parent="1">
                    <mxGeometry x="210" y="690" width="120" height="80" as="geometry"/>
                </mxCell>
                <mxCell id="107" value="" style="endArrow=classic;html=1;exitX=1;exitY=0.5;exitDx=0;exitDy=0;entryX=0;entryY=0;entryDx=0;entryDy=0;" edge="1" parent="1" source="105" target="108">
                    <mxGeometry width="50" height="50" relative="1" as="geometry">
                        <mxPoint x="439.5600000000002" y="709.6800000000003" as="sourcePoint"/>
                        <mxPoint x="1110" y="907" as="targetPoint"/>
                        <Array as="points"/>
                    </mxGeometry>
                </mxCell>
                <mxCell id="108" value="Mezzi Produttivi" style="ellipse;whiteSpace=wrap;html=1;" vertex="1" parent="1">
                    <mxGeometry x="980" y="900" width="120" height="80" as="geometry"/>
                </mxCell>
                <mxCell id="109" value="Energia" style="ellipse;whiteSpace=wrap;html=1;" vertex="1" parent="1">
                    <mxGeometry x="1260" y="960" width="120" height="80" as="geometry"/>
                </mxCell>
                <mxCell id="110" value="" style="endArrow=classic;html=1;entryX=-0.014;entryY=0.415;entryDx=0;entryDy=0;entryPerimeter=0;" edge="1" parent="1" target="109" source="105">
                    <mxGeometry width="50" height="50" relative="1" as="geometry">
                        <mxPoint x="260.0000000000001" y="820.0000000000003" as="sourcePoint"/>
                        <mxPoint x="202.99999999999991" y="801.9200000000004" as="targetPoint"/>
                        <Array as="points">
                            <mxPoint x="620" y="840"/>
                            <mxPoint x="1050" y="1000"/>
                        </Array>
                    </mxGeometry>
                </mxCell>
                <mxCell id="111" value="Materiali Estratti" style="ellipse;whiteSpace=wrap;html=1;" vertex="1" parent="1">
                    <mxGeometry x="880" y="980" width="120" height="80" as="geometry"/>
                </mxCell>
                <mxCell id="112" value="" style="endArrow=classic;html=1;entryX=0;entryY=0;entryDx=0;entryDy=0;exitX=0.932;exitY=0.82;exitDx=0;exitDy=0;exitPerimeter=0;" edge="1" parent="1" target="111" source="105">
                    <mxGeometry width="50" height="50" relative="1" as="geometry">
                        <mxPoint x="452.83900061820714" y="948.9506964242514" as="sourcePoint"/>
                        <mxPoint x="356.5999999999999" y="924.5600000000004" as="targetPoint"/>
                        <Array as="points">
                            <mxPoint x="700" y="890"/>
                        </Array>
                    </mxGeometry>
                </mxCell>
                <mxCell id="113" value="Materiali Inutilizzati" style="ellipse;whiteSpace=wrap;html=1;" vertex="1" parent="1">
                    <mxGeometry x="1127.57" y="1011.72" width="120" height="80" as="geometry"/>
                </mxCell>
                <mxCell id="114" value="" style="endArrow=classic;html=1;exitX=0.952;exitY=0.702;exitDx=0;exitDy=0;exitPerimeter=0;" edge="1" parent="1" target="113" source="105">
                    <mxGeometry width="50" height="50" relative="1" as="geometry">
                        <mxPoint x="439.9964068711898" y="930.0042712474599" as="sourcePoint"/>
                        <mxPoint x="364.1699999999999" y="906.2800000000004" as="targetPoint"/>
                        <Array as="points">
                            <mxPoint x="1020" y="1000"/>
                        </Array>
                    </mxGeometry>
                </mxCell>
                <mxCell id="115" value="" style="endArrow=classic;html=1;exitX=0.927;exitY=0.79;exitDx=0;exitDy=0;entryX=0.06;entryY=0.188;entryDx=0;entryDy=0;entryPerimeter=0;exitPerimeter=0;" edge="1" parent="1" source="18" target="105">
                    <mxGeometry width="50" height="50" relative="1" as="geometry">
                        <mxPoint x="314.84000000000015" y="630.8800000000001" as="sourcePoint"/>
                        <mxPoint x="366.5999999999999" y="654.5600000000004" as="targetPoint"/>
                    </mxGeometry>
                </mxCell>
                <mxCell id="116" value="" style="endArrow=classic;html=1;entryX=0.5;entryY=0;entryDx=0;entryDy=0;" edge="1" parent="1" source="18" target="106">
                    <mxGeometry width="50" height="50" relative="1" as="geometry">
                        <mxPoint x="311.24" y="633.1999999999998" as="sourcePoint"/>
                        <mxPoint x="387.20000000000005" y="715.0400000000004" as="targetPoint"/>
                    </mxGeometry>
                </mxCell>
                <mxCell id="117" value="Flussi" style="ellipse;whiteSpace=wrap;html=1;" vertex="1" parent="1">
                    <mxGeometry x="540" y="870" width="120" height="80" as="geometry"/>
                </mxCell>
                <mxCell id="118" value="Utilizzi" style="ellipse;whiteSpace=wrap;html=1;" vertex="1" parent="1">
                    <mxGeometry x="360" y="840" width="120" height="80" as="geometry"/>
                </mxCell>
                <mxCell id="119" value="" style="endArrow=classic;html=1;exitX=0.927;exitY=0.798;exitDx=0;exitDy=0;exitPerimeter=0;" edge="1" parent="1" source="106" target="118">
                    <mxGeometry width="50" height="50" relative="1" as="geometry">
                        <mxPoint x="311.24" y="633.1999999999998" as="sourcePoint"/>
                        <mxPoint x="387.20000000000005" y="715.0400000000004" as="targetPoint"/>
                    </mxGeometry>
                </mxCell>
                <mxCell id="120" value="" style="endArrow=classic;html=1;exitX=1;exitY=0.5;exitDx=0;exitDy=0;entryX=0.05;entryY=0.276;entryDx=0;entryDy=0;entryPerimeter=0;" edge="1" parent="1" source="106" target="117">
                    <mxGeometry width="50" height="50" relative="1" as="geometry">
                        <mxPoint x="321.24" y="643.1999999999998" as="sourcePoint"/>
                        <mxPoint x="397.20000000000005" y="725.0400000000004" as="targetPoint"/>
                    </mxGeometry>
                </mxCell>
                <mxCell id="121" value="Approvigionamento" style="ellipse;whiteSpace=wrap;html=1;" vertex="1" parent="1">
                    <mxGeometry x="960" y="1080" width="120" height="80" as="geometry"/>
                </mxCell>
                <mxCell id="122" value="Destinazione Territoriale" style="ellipse;whiteSpace=wrap;html=1;" vertex="1" parent="1">
                    <mxGeometry x="827" y="1091.72" width="120" height="80" as="geometry"/>
                </mxCell>
                <mxCell id="123" value="" style="endArrow=classic;html=1;exitX=1;exitY=1;exitDx=0;exitDy=0;entryX=0.5;entryY=0;entryDx=0;entryDy=0;" edge="1" parent="1" source="117" target="122">
                    <mxGeometry width="50" height="50" relative="1" as="geometry">
                        <mxPoint x="340.00000000000114" y="740" as="sourcePoint"/>
                        <mxPoint x="455.9999999999998" y="832.0799999999999" as="targetPoint"/>
                    </mxGeometry>
                </mxCell>
                <mxCell id="124" value="" style="endArrow=classic;html=1;entryX=0;entryY=0;entryDx=0;entryDy=0;" edge="1" parent="1" source="117" target="121">
                    <mxGeometry width="50" height="50" relative="1" as="geometry">
                        <mxPoint x="350.00000000000114" y="750" as="sourcePoint"/>
                        <mxPoint x="465.9999999999998" y="842.0799999999999" as="targetPoint"/>
                        <Array as="points">
                            <mxPoint x="860" y="1050"/>
                        </Array>
                    </mxGeometry>
                </mxCell>
                <mxCell id="125" value="Destinazione Uso" style="ellipse;whiteSpace=wrap;html=1;" vertex="1" parent="1">
                    <mxGeometry x="660" y="1020" width="120" height="80" as="geometry"/>
                </mxCell>
                <mxCell id="126" value="" style="endArrow=classic;html=1;exitX=1;exitY=1;exitDx=0;exitDy=0;entryX=0;entryY=0;entryDx=0;entryDy=0;" edge="1" parent="1" source="118" target="125">
                    <mxGeometry width="50" height="50" relative="1" as="geometry">
                        <mxPoint x="652.4264068711959" y="948.284271247464" as="sourcePoint"/>
                        <mxPoint x="897" y="1101.7200000000003" as="targetPoint"/>
                    </mxGeometry>
                </mxCell>
                <mxCell id="127" value="Polizia Mineraria" style="ellipse;whiteSpace=wrap;html=1;" vertex="1" parent="1">
                    <mxGeometry x="310" y="1060" width="120" height="80" as="geometry"/>
                </mxCell>
                <mxCell id="128" value="Report" style="ellipse;whiteSpace=wrap;html=1;" vertex="1" parent="1">
                    <mxGeometry x="450" y="990" width="120" height="80" as="geometry"/>
                </mxCell>
                <mxCell id="129" value="" style="endArrow=classic;html=1;exitX=0.5;exitY=0.5;exitDx=0;exitDy=0;exitPerimeter=0;" edge="1" parent="1" source="4" target="19">
                    <mxGeometry width="50" height="50" relative="1" as="geometry">
                        <mxPoint x="190" y="840.0000000000001" as="sourcePoint"/>
                        <mxPoint x="261.19914171022924" y="930.629736903548" as="targetPoint"/>
                    </mxGeometry>
                </mxCell>
                <mxCell id="130" value="" style="endArrow=classic;html=1;exitX=1;exitY=0.5;exitDx=0;exitDy=0;entryX=0.025;entryY=0.408;entryDx=0;entryDy=0;entryPerimeter=0;" edge="1" parent="1" source="19" target="128">
                    <mxGeometry width="50" height="50" relative="1" as="geometry">
                        <mxPoint x="224.4" y="834.6900000000002" as="sourcePoint"/>
                        <mxPoint x="295.5991417102292" y="925.319736903548" as="targetPoint"/>
                    </mxGeometry>
                </mxCell>
                <mxCell id="131" value="" style="endArrow=classic;html=1;exitX=0.967;exitY=0.761;exitDx=0;exitDy=0;exitPerimeter=0;" edge="1" parent="1" source="19" target="127">
                    <mxGeometry width="50" height="50" relative="1" as="geometry">
                        <mxPoint x="234.4" y="790.0000000000001" as="sourcePoint"/>
                        <mxPoint x="305.5991417102292" y="880.629736903548" as="targetPoint"/>
                    </mxGeometry>
                </mxCell>
                <mxCell id="132" value="Export ISTAT" style="ellipse;whiteSpace=wrap;html=1;fillColor=#d80073;strokeColor=#A50040;fontColor=#ffffff;" vertex="1" parent="1">
                    <mxGeometry x="770" y="1220" width="120" height="80" as="geometry"/>
                </mxCell>
                <mxCell id="133" value="Stampa" style="ellipse;whiteSpace=wrap;html=1;fillColor=#d80073;strokeColor=#A50040;fontColor=#ffffff;" vertex="1" parent="1">
                    <mxGeometry x="675.62" y="1120" width="120" height="80" as="geometry"/>
                </mxCell>
                <mxCell id="134" value="" style="endArrow=classic;html=1;exitX=1;exitY=1;exitDx=0;exitDy=0;entryX=0;entryY=0;entryDx=0;entryDy=0;" edge="1" parent="1" source="128" target="132">
                    <mxGeometry width="50" height="50" relative="1" as="geometry">
                        <mxPoint x="472.42640687119297" y="918.2842712474621" as="sourcePoint"/>
                        <mxPoint x="687.5735931288011" y="1041.7157287525347" as="targetPoint"/>
                        <Array as="points">
                            <mxPoint x="650" y="1180"/>
                            <mxPoint x="670" y="1200"/>
                        </Array>
                    </mxGeometry>
                </mxCell>
                <mxCell id="135" value="" style="endArrow=classic;html=1;exitX=1;exitY=0.5;exitDx=0;exitDy=0;entryX=0;entryY=0;entryDx=0;entryDy=0;" edge="1" parent="1" source="128" target="133">
                    <mxGeometry width="50" height="50" relative="1" as="geometry">
                        <mxPoint x="482.42640687119297" y="928.2842712474621" as="sourcePoint"/>
                        <mxPoint x="697.5735931288011" y="1051.7157287525347" as="targetPoint"/>
                    </mxGeometry>
                </mxCell>
                <mxCell id="136" value="Sanzioni" style="ellipse;whiteSpace=wrap;html=1;fillColor=#d80073;strokeColor=#A50040;fontColor=#ffffff;" vertex="1" parent="1">
                    <mxGeometry x="579.9999999999999" y="1210" width="120" height="80" as="geometry"/>
                </mxCell>
                <mxCell id="137" value="Modo Ispezione" style="ellipse;whiteSpace=wrap;html=1;fillColor=#d80073;strokeColor=#A50040;fontColor=#ffffff;" vertex="1" parent="1">
                    <mxGeometry x="470" y="1100" width="120" height="80" as="geometry"/>
                </mxCell>
                <mxCell id="138" value="" style="endArrow=classic;html=1;exitX=1;exitY=1;exitDx=0;exitDy=0;entryX=0.04;entryY=0.254;entryDx=0;entryDy=0;entryPerimeter=0;" edge="1" parent="1" target="136" source="127">
                    <mxGeometry width="50" height="50" relative="1" as="geometry">
                        <mxPoint x="379.99640687119273" y="1098.2842712474621" as="sourcePoint"/>
                        <mxPoint x="515.1435931288011" y="1081.7157287525347" as="targetPoint"/>
                        <Array as="points">
                            <mxPoint x="500" y="1210"/>
                        </Array>
                    </mxGeometry>
                </mxCell>
                <mxCell id="139" value="" style="endArrow=classic;html=1;exitX=0.947;exitY=0.732;exitDx=0;exitDy=0;entryX=0;entryY=0;entryDx=0;entryDy=0;exitPerimeter=0;" edge="1" parent="1" target="137" source="127">
                    <mxGeometry width="50" height="50" relative="1" as="geometry">
                        <mxPoint x="397.56999999999977" y="1070" as="sourcePoint"/>
                        <mxPoint x="525.1435931288011" y="1091.7157287525347" as="targetPoint"/>
                    </mxGeometry>
                </mxCell>
                <mxCell id="140" value="" style="endArrow=classic;html=1;entryX=0;entryY=0;entryDx=0;entryDy=0;" edge="1" parent="1" source="4" target="20">
                    <mxGeometry width="50" height="50" relative="1" as="geometry">
                        <mxPoint x="55" y="520" as="sourcePoint"/>
                        <mxPoint x="262.438859300672" y="971.7516516705737" as="targetPoint"/>
                    </mxGeometry>
                </mxCell>
                <mxCell id="141" value="Log errori" style="ellipse;whiteSpace=wrap;html=1;" vertex="1" parent="1">
                    <mxGeometry x="370" y="1210" width="120" height="80" as="geometry"/>
                </mxCell>
                <mxCell id="142" value="" style="endArrow=classic;html=1;exitX=1;exitY=0.5;exitDx=0;exitDy=0;entryX=0;entryY=0;entryDx=0;entryDy=0;" edge="1" parent="1" source="20" target="141">
                    <mxGeometry width="50" height="50" relative="1" as="geometry">
                        <mxPoint x="336.03999999999996" y="1030.88" as="sourcePoint"/>
                        <mxPoint x="359.27066048023994" y="1072.4630878966514" as="targetPoint"/>
                    </mxGeometry>
                </mxCell>
                <mxCell id="143" value="Lingue" style="ellipse;whiteSpace=wrap;html=1;" vertex="1" parent="1">
                    <mxGeometry x="480" y="1290" width="120" height="80" as="geometry"/>
                </mxCell>
                <mxCell id="144" value="" style="endArrow=classic;html=1;exitX=0.962;exitY=0.695;exitDx=0;exitDy=0;entryX=0;entryY=0.5;entryDx=0;entryDy=0;exitPerimeter=0;" edge="1" parent="1" source="20" target="143">
                    <mxGeometry width="50" height="50" relative="1" as="geometry">
                        <mxPoint x="329.9999999999998" y="1200" as="sourcePoint"/>
                        <mxPoint x="397.57359312880726" y="1231.7157287525383" as="targetPoint"/>
                        <Array as="points">
                            <mxPoint x="380" y="1290"/>
                        </Array>
                    </mxGeometry>
                </mxCell>
                <mxCell id="145" value="Traduzioni" style="ellipse;whiteSpace=wrap;html=1;" vertex="1" parent="1">
                    <mxGeometry x="590" y="1380" width="120" height="80" as="geometry"/>
                </mxCell>
                <mxCell id="146" value="" style="endArrow=classic;html=1;exitX=1;exitY=1;exitDx=0;exitDy=0;entryX=0;entryY=0.75;entryDx=0;entryDy=0;entryPerimeter=0;" edge="1" parent="1" source="20" target="145">
                    <mxGeometry width="50" height="50" relative="1" as="geometry">
                        <mxPoint x="325.44000000000005" y="1215.6000000000004" as="sourcePoint"/>
                        <mxPoint x="489.9999999999998" y="1340" as="targetPoint"/>
                        <Array as="points">
                            <mxPoint x="400" y="1340"/>
                        </Array>
                    </mxGeometry>
                </mxCell>
                <mxCell id="147" value="Ruolo Utenti" style="ellipse;whiteSpace=wrap;html=1;" vertex="1" parent="1">
                    <mxGeometry x="360" y="1390" width="120" height="80" as="geometry"/>
                </mxCell>
                <mxCell id="148" value="Utenti" style="ellipse;whiteSpace=wrap;html=1;" vertex="1" parent="1">
                    <mxGeometry x="190" y="1380" width="120" height="80" as="geometry"/>
                </mxCell>
                <mxCell id="149" value="" style="endArrow=classic;html=1;exitX=0.583;exitY=1;exitDx=0;exitDy=0;exitPerimeter=0;" edge="1" parent="1" source="20" target="148">
                    <mxGeometry width="50" height="50" relative="1" as="geometry">
                        <mxPoint x="329.9999999999998" y="1200" as="sourcePoint"/>
                        <mxPoint x="397.57359312880726" y="1231.7157287525383" as="targetPoint"/>
                    </mxGeometry>
                </mxCell>
                <mxCell id="150" value="" style="endArrow=classic;html=1;exitX=0.746;exitY=0.989;exitDx=0;exitDy=0;entryX=0;entryY=0;entryDx=0;entryDy=0;exitPerimeter=0;" edge="1" parent="1" source="20" target="147">
                    <mxGeometry width="50" height="50" relative="1" as="geometry">
                        <mxPoint x="339.9999999999998" y="1210" as="sourcePoint"/>
                        <mxPoint x="407.57359312880726" y="1241.7157287525383" as="targetPoint"/>
                    </mxGeometry>
                </mxCell>
            </root>
        </mxGraphModel>
    </diagram>
</mxfile>